# xmcd
#
# Track frame offsets: 
#        150
#        15422
#        35880
#        57540
#        76087
#        92157
#        112550
#        134887
#        149657
#        174272
#
# Disc length: 2471 seconds
#
# Revision: 9
# Processed by: cddbd v1.5.2PL0 Copyright (c) Steve Scherf et al.
# Submitted via: ExactAudioCopyFreeDBPlugin 1.0
#
DISCID=8409a50a
DTITLE=Canned Heat and John Lee Hooker - Hooker 'N Heat
DYEAR=1970
DGENRE=Blues
TTITLE0=Messin' With The Hook
TTITLE1=The Feelin' Is Gone
TTITLE2=Send Me Your Pillow
TTITLE3=Sittin' Here Thinkin'
TTITLE4=Meet Me In The Bottom
TTITLE5=Alimonia Blues
TTITLE6=Drifter
TTITLE7=You Talk Too Much
TTITLE8=Burning Hell
TTITLE9=Bottle Up And Go
EXTD=YEAR: 1970
EXTT0=
EXTT1=
EXTT2=
EXTT3=
EXTT4=
EXTT5=
EXTT6=
EXTT7=
EXTT8=
EXTT9=
PLAYORDER=
